<mxfile host="www.draw.io" modified="2020-01-07T13:47:55.470Z" agent="Mozilla/5.0 (Windows NT 10.0; Win64; x64) AppleWebKit/537.36 (KHTML, like Gecko) Chrome/79.0.3945.88 Safari/537.36" etag="uxLrHtGLbmMkrdez8Y7D" version="12.4.9" type="github">
  <diagram id="FHp_LS5VSautCnnFOKxd" name="Page-1">
    <mxGraphModel dx="1024" dy="1744" grid="1" gridSize="10" guides="1" tooltips="1" connect="1" arrows="1" fold="1" page="1" pageScale="1" pageWidth="827" pageHeight="1169" math="0" shadow="0">
      <root>
        <mxCell id="0"/>
        <mxCell id="1" parent="0"/>
        <mxCell id="r8pubFpYhxn6pMMQg7un-184" style="edgeStyle=orthogonalEdgeStyle;rounded=0;orthogonalLoop=1;jettySize=auto;html=1;exitX=0.5;exitY=1;exitDx=0;exitDy=0;entryX=0.481;entryY=-0.001;entryDx=0;entryDy=0;entryPerimeter=0;" edge="1" parent="1" source="r8pubFpYhxn6pMMQg7un-2" target="r8pubFpYhxn6pMMQg7un-183">
          <mxGeometry relative="1" as="geometry"/>
        </mxCell>
        <mxCell id="r8pubFpYhxn6pMMQg7un-2" value="" style="ellipse;html=1;shape=startState;fillColor=#000000;strokeColor=#ff0000;" vertex="1" parent="1">
          <mxGeometry x="440" y="-490" width="50" height="50" as="geometry"/>
        </mxCell>
        <mxCell id="r8pubFpYhxn6pMMQg7un-16" value="" style="edgeStyle=orthogonalEdgeStyle;rounded=0;orthogonalLoop=1;jettySize=auto;html=1;entryX=0.467;entryY=0.02;entryDx=0;entryDy=0;entryPerimeter=0;" edge="1" parent="1" source="r8pubFpYhxn6pMMQg7un-14" target="r8pubFpYhxn6pMMQg7un-42">
          <mxGeometry relative="1" as="geometry">
            <mxPoint x="170" y="460" as="targetPoint"/>
          </mxGeometry>
        </mxCell>
        <mxCell id="r8pubFpYhxn6pMMQg7un-31" value="" style="edgeStyle=orthogonalEdgeStyle;rounded=0;orthogonalLoop=1;jettySize=auto;html=1;" edge="1" parent="1" source="r8pubFpYhxn6pMMQg7un-14">
          <mxGeometry relative="1" as="geometry">
            <mxPoint x="433.125" y="560" as="targetPoint"/>
          </mxGeometry>
        </mxCell>
        <mxCell id="r8pubFpYhxn6pMMQg7un-33" value="" style="edgeStyle=orthogonalEdgeStyle;rounded=0;orthogonalLoop=1;jettySize=auto;html=1;entryX=0.507;entryY=0.027;entryDx=0;entryDy=0;entryPerimeter=0;" edge="1" parent="1" source="r8pubFpYhxn6pMMQg7un-14" target="r8pubFpYhxn6pMMQg7un-41">
          <mxGeometry relative="1" as="geometry">
            <mxPoint x="670" y="460" as="targetPoint"/>
          </mxGeometry>
        </mxCell>
        <mxCell id="r8pubFpYhxn6pMMQg7un-14" value="" style="rhombus;whiteSpace=wrap;html=1;" vertex="1" parent="1">
          <mxGeometry x="415" y="440" width="36.25" height="40" as="geometry"/>
        </mxCell>
        <mxCell id="r8pubFpYhxn6pMMQg7un-187" value="" style="edgeStyle=orthogonalEdgeStyle;rounded=0;orthogonalLoop=1;jettySize=auto;html=1;" edge="1" parent="1" source="r8pubFpYhxn6pMMQg7un-21" target="r8pubFpYhxn6pMMQg7un-14">
          <mxGeometry relative="1" as="geometry"/>
        </mxCell>
        <mxCell id="r8pubFpYhxn6pMMQg7un-21" value="ref Logowanie" style="shape=umlFrame;whiteSpace=wrap;html=1;width=97;height=20;" vertex="1" parent="1">
          <mxGeometry x="350" y="320" width="160" height="70" as="geometry"/>
        </mxCell>
        <mxCell id="r8pubFpYhxn6pMMQg7un-29" value="" style="edgeStyle=orthogonalEdgeStyle;rounded=0;orthogonalLoop=1;jettySize=auto;html=1;" edge="1" parent="1" source="r8pubFpYhxn6pMMQg7un-24" target="r8pubFpYhxn6pMMQg7un-21">
          <mxGeometry relative="1" as="geometry"/>
        </mxCell>
        <mxCell id="r8pubFpYhxn6pMMQg7un-24" value="" style="rhombus;whiteSpace=wrap;html=1;" vertex="1" parent="1">
          <mxGeometry x="415" y="260" width="30" height="30" as="geometry"/>
        </mxCell>
        <mxCell id="r8pubFpYhxn6pMMQg7un-35" value="Przeglądaj aukcje" style="text;html=1;align=center;verticalAlign=middle;resizable=0;points=[];autosize=1;" vertex="1" parent="1">
          <mxGeometry x="490" y="440" width="110" height="20" as="geometry"/>
        </mxCell>
        <mxCell id="r8pubFpYhxn6pMMQg7un-36" value="Wystaw aukcje" style="text;html=1;align=center;verticalAlign=middle;resizable=0;points=[];autosize=1;" vertex="1" parent="1">
          <mxGeometry x="300" y="440" width="100" height="20" as="geometry"/>
        </mxCell>
        <mxCell id="r8pubFpYhxn6pMMQg7un-37" value="Przeglądaj koszyk" style="text;html=1;align=center;verticalAlign=middle;resizable=0;points=[];autosize=1;" vertex="1" parent="1">
          <mxGeometry x="375" y="500" width="110" height="20" as="geometry"/>
        </mxCell>
        <mxCell id="r8pubFpYhxn6pMMQg7un-50" value="" style="edgeStyle=orthogonalEdgeStyle;rounded=0;orthogonalLoop=1;jettySize=auto;html=1;" edge="1" parent="1" source="r8pubFpYhxn6pMMQg7un-39">
          <mxGeometry relative="1" as="geometry">
            <mxPoint x="455" y="660" as="targetPoint"/>
          </mxGeometry>
        </mxCell>
        <mxCell id="r8pubFpYhxn6pMMQg7un-39" value="ref" style="shape=umlFrame;whiteSpace=wrap;html=1;width=40;height=20;" vertex="1" parent="1">
          <mxGeometry x="360" y="560" width="190" height="60" as="geometry"/>
        </mxCell>
        <mxCell id="r8pubFpYhxn6pMMQg7un-40" value="Przeglądaj/aktualizuj &lt;br&gt;koszyk zakupów" style="text;html=1;align=center;verticalAlign=middle;resizable=0;points=[];autosize=1;" vertex="1" parent="1">
          <mxGeometry x="400" y="575" width="130" height="30" as="geometry"/>
        </mxCell>
        <mxCell id="r8pubFpYhxn6pMMQg7un-47" value="" style="edgeStyle=orthogonalEdgeStyle;rounded=0;orthogonalLoop=1;jettySize=auto;html=1;" edge="1" parent="1" source="r8pubFpYhxn6pMMQg7un-41" target="r8pubFpYhxn6pMMQg7un-43">
          <mxGeometry relative="1" as="geometry"/>
        </mxCell>
        <mxCell id="r8pubFpYhxn6pMMQg7un-41" value="ref" style="shape=umlFrame;whiteSpace=wrap;html=1;width=40;height=20;" vertex="1" parent="1">
          <mxGeometry x="620" y="490" width="190" height="60" as="geometry"/>
        </mxCell>
        <mxCell id="r8pubFpYhxn6pMMQg7un-58" value="" style="edgeStyle=orthogonalEdgeStyle;rounded=0;orthogonalLoop=1;jettySize=auto;html=1;" edge="1" parent="1" source="r8pubFpYhxn6pMMQg7un-43">
          <mxGeometry relative="1" as="geometry">
            <mxPoint x="715" y="760" as="targetPoint"/>
          </mxGeometry>
        </mxCell>
        <mxCell id="r8pubFpYhxn6pMMQg7un-43" value="ref" style="shape=umlFrame;whiteSpace=wrap;html=1;width=40;height=20;" vertex="1" parent="1">
          <mxGeometry x="620" y="640" width="190" height="60" as="geometry"/>
        </mxCell>
        <mxCell id="r8pubFpYhxn6pMMQg7un-57" value="ref" style="shape=umlFrame;whiteSpace=wrap;html=1;width=40;height=20;" vertex="1" parent="1">
          <mxGeometry x="620" y="840" width="190" height="60" as="geometry"/>
        </mxCell>
        <mxCell id="r8pubFpYhxn6pMMQg7un-186" value="" style="edgeStyle=orthogonalEdgeStyle;rounded=0;orthogonalLoop=1;jettySize=auto;html=1;entryX=0;entryY=0.5;entryDx=0;entryDy=0;" edge="1" parent="1" source="r8pubFpYhxn6pMMQg7un-42" target="r8pubFpYhxn6pMMQg7un-92">
          <mxGeometry relative="1" as="geometry">
            <mxPoint x="135" y="620" as="targetPoint"/>
          </mxGeometry>
        </mxCell>
        <mxCell id="r8pubFpYhxn6pMMQg7un-42" value="ref" style="shape=umlFrame;whiteSpace=wrap;html=1;width=40;height=20;" vertex="1" parent="1">
          <mxGeometry x="40" y="480" width="190" height="60" as="geometry"/>
        </mxCell>
        <mxCell id="r8pubFpYhxn6pMMQg7un-45" value="Wyszukaj aukcje" style="text;html=1;align=center;verticalAlign=middle;resizable=0;points=[];autosize=1;" vertex="1" parent="1">
          <mxGeometry x="660" y="510" width="110" height="20" as="geometry"/>
        </mxCell>
        <mxCell id="r8pubFpYhxn6pMMQg7un-46" value="Zobacz przedmiot" style="text;html=1;align=center;verticalAlign=middle;resizable=0;points=[];autosize=1;" vertex="1" parent="1">
          <mxGeometry x="669" y="660" width="110" height="20" as="geometry"/>
        </mxCell>
        <mxCell id="r8pubFpYhxn6pMMQg7un-53" value="" style="edgeStyle=orthogonalEdgeStyle;rounded=0;orthogonalLoop=1;jettySize=auto;html=1;entryX=-0.002;entryY=0.64;entryDx=0;entryDy=0;entryPerimeter=0;" edge="1" parent="1" source="r8pubFpYhxn6pMMQg7un-48" target="r8pubFpYhxn6pMMQg7un-43">
          <mxGeometry relative="1" as="geometry">
            <mxPoint x="553.1199999999999" y="680" as="targetPoint"/>
          </mxGeometry>
        </mxCell>
        <mxCell id="r8pubFpYhxn6pMMQg7un-55" value="" style="edgeStyle=orthogonalEdgeStyle;rounded=0;orthogonalLoop=1;jettySize=auto;html=1;entryX=0.491;entryY=-0.033;entryDx=0;entryDy=0;entryPerimeter=0;" edge="1" parent="1" source="r8pubFpYhxn6pMMQg7un-48" target="r8pubFpYhxn6pMMQg7un-90">
          <mxGeometry relative="1" as="geometry">
            <mxPoint x="276.25" y="680" as="targetPoint"/>
          </mxGeometry>
        </mxCell>
        <mxCell id="r8pubFpYhxn6pMMQg7un-69" value="" style="edgeStyle=orthogonalEdgeStyle;rounded=0;orthogonalLoop=1;jettySize=auto;html=1;entryX=0.503;entryY=0.007;entryDx=0;entryDy=0;entryPerimeter=0;" edge="1" parent="1" source="r8pubFpYhxn6pMMQg7un-48" target="r8pubFpYhxn6pMMQg7un-74">
          <mxGeometry relative="1" as="geometry">
            <mxPoint x="454.9949999999999" y="780" as="targetPoint"/>
          </mxGeometry>
        </mxCell>
        <mxCell id="r8pubFpYhxn6pMMQg7un-48" value="" style="rhombus;whiteSpace=wrap;html=1;" vertex="1" parent="1">
          <mxGeometry x="436.87" y="660" width="36.25" height="40" as="geometry"/>
        </mxCell>
        <mxCell id="r8pubFpYhxn6pMMQg7un-56" value="Zobacz szczegóły&amp;nbsp;" style="text;html=1;align=center;verticalAlign=middle;resizable=0;points=[];autosize=1;" vertex="1" parent="1">
          <mxGeometry x="485" y="660" width="110" height="20" as="geometry"/>
        </mxCell>
        <mxCell id="r8pubFpYhxn6pMMQg7un-61" style="edgeStyle=orthogonalEdgeStyle;rounded=0;orthogonalLoop=1;jettySize=auto;html=1;exitX=0.5;exitY=1;exitDx=0;exitDy=0;entryX=0.507;entryY=-0.02;entryDx=0;entryDy=0;entryPerimeter=0;" edge="1" parent="1" source="r8pubFpYhxn6pMMQg7un-59" target="r8pubFpYhxn6pMMQg7un-57">
          <mxGeometry relative="1" as="geometry"/>
        </mxCell>
        <mxCell id="r8pubFpYhxn6pMMQg7un-82" style="edgeStyle=orthogonalEdgeStyle;rounded=0;orthogonalLoop=1;jettySize=auto;html=1;exitX=1;exitY=0.5;exitDx=0;exitDy=0;entryX=0;entryY=0.5;entryDx=0;entryDy=0;" edge="1" parent="1" source="r8pubFpYhxn6pMMQg7un-59" target="r8pubFpYhxn6pMMQg7un-81">
          <mxGeometry relative="1" as="geometry"/>
        </mxCell>
        <mxCell id="r8pubFpYhxn6pMMQg7un-59" value="" style="rhombus;whiteSpace=wrap;html=1;" vertex="1" parent="1">
          <mxGeometry x="696.88" y="760" width="36.25" height="40" as="geometry"/>
        </mxCell>
        <mxCell id="r8pubFpYhxn6pMMQg7un-84" value="" style="edgeStyle=orthogonalEdgeStyle;rounded=0;orthogonalLoop=1;jettySize=auto;html=1;entryX=0.5;entryY=1;entryDx=0;entryDy=0;" edge="1" parent="1" source="r8pubFpYhxn6pMMQg7un-60" target="r8pubFpYhxn6pMMQg7un-81">
          <mxGeometry relative="1" as="geometry">
            <mxPoint x="889" y="870" as="targetPoint"/>
          </mxGeometry>
        </mxCell>
        <mxCell id="r8pubFpYhxn6pMMQg7un-60" value="Dodaj przedmiot do koszyka" style="text;html=1;align=center;verticalAlign=middle;resizable=0;points=[];autosize=1;" vertex="1" parent="1">
          <mxGeometry x="639" y="860" width="170" height="20" as="geometry"/>
        </mxCell>
        <mxCell id="r8pubFpYhxn6pMMQg7un-66" value="Dodaj do koszyka" style="text;html=1;align=center;verticalAlign=middle;resizable=0;points=[];autosize=1;" vertex="1" parent="1">
          <mxGeometry x="680" y="800" width="110" height="20" as="geometry"/>
        </mxCell>
        <mxCell id="r8pubFpYhxn6pMMQg7un-67" value="Pomiń" style="text;html=1;align=center;verticalAlign=middle;resizable=0;points=[];autosize=1;" vertex="1" parent="1">
          <mxGeometry x="750" y="760" width="50" height="20" as="geometry"/>
        </mxCell>
        <mxCell id="r8pubFpYhxn6pMMQg7un-73" value="Zrezygnuj z przedmiotu" style="text;html=1;align=center;verticalAlign=middle;resizable=0;points=[];autosize=1;" vertex="1" parent="1">
          <mxGeometry x="400" y="720" width="140" height="20" as="geometry"/>
        </mxCell>
        <mxCell id="r8pubFpYhxn6pMMQg7un-88" value="" style="edgeStyle=orthogonalEdgeStyle;rounded=0;orthogonalLoop=1;jettySize=auto;html=1;entryX=1;entryY=0.5;entryDx=0;entryDy=0;" edge="1" parent="1" source="r8pubFpYhxn6pMMQg7un-74" target="r8pubFpYhxn6pMMQg7un-81">
          <mxGeometry relative="1" as="geometry">
            <mxPoint x="455" y="920" as="targetPoint"/>
            <Array as="points">
              <mxPoint x="455" y="920"/>
              <mxPoint x="876" y="920"/>
              <mxPoint x="876" y="780"/>
            </Array>
          </mxGeometry>
        </mxCell>
        <mxCell id="r8pubFpYhxn6pMMQg7un-74" value="ref" style="shape=umlFrame;whiteSpace=wrap;html=1;width=40;height=20;" vertex="1" parent="1">
          <mxGeometry x="360" y="780" width="190" height="60" as="geometry"/>
        </mxCell>
        <mxCell id="r8pubFpYhxn6pMMQg7un-75" value="Usuń przedmiot z koszyka" style="text;html=1;align=center;verticalAlign=middle;resizable=0;points=[];autosize=1;" vertex="1" parent="1">
          <mxGeometry x="380" y="800" width="160" height="20" as="geometry"/>
        </mxCell>
        <mxCell id="r8pubFpYhxn6pMMQg7un-86" value="" style="edgeStyle=orthogonalEdgeStyle;rounded=0;orthogonalLoop=1;jettySize=auto;html=1;entryX=0.5;entryY=0;entryDx=0;entryDy=0;" edge="1" parent="1" source="r8pubFpYhxn6pMMQg7un-81" target="r8pubFpYhxn6pMMQg7un-14">
          <mxGeometry relative="1" as="geometry">
            <mxPoint x="838.125" y="680" as="targetPoint"/>
            <Array as="points">
              <mxPoint x="838" y="420"/>
              <mxPoint x="433" y="420"/>
            </Array>
          </mxGeometry>
        </mxCell>
        <mxCell id="r8pubFpYhxn6pMMQg7un-81" value="" style="rhombus;whiteSpace=wrap;html=1;" vertex="1" parent="1">
          <mxGeometry x="820" y="760" width="36.25" height="40" as="geometry"/>
        </mxCell>
        <mxCell id="r8pubFpYhxn6pMMQg7un-89" value="Finalizuj zakup" style="text;html=1;align=center;verticalAlign=middle;resizable=0;points=[];autosize=1;" vertex="1" parent="1">
          <mxGeometry x="305" y="660" width="90" height="20" as="geometry"/>
        </mxCell>
        <mxCell id="r8pubFpYhxn6pMMQg7un-98" value="" style="edgeStyle=orthogonalEdgeStyle;rounded=0;orthogonalLoop=1;jettySize=auto;html=1;" edge="1" parent="1" source="r8pubFpYhxn6pMMQg7un-90">
          <mxGeometry relative="1" as="geometry">
            <mxPoint x="235" y="920" as="targetPoint"/>
          </mxGeometry>
        </mxCell>
        <mxCell id="r8pubFpYhxn6pMMQg7un-90" value="ref" style="shape=umlFrame;whiteSpace=wrap;html=1;width=40;height=20;" vertex="1" parent="1">
          <mxGeometry x="155.01" y="780" width="160" height="60" as="geometry"/>
        </mxCell>
        <mxCell id="r8pubFpYhxn6pMMQg7un-91" value="Finalizuj transakcję" style="text;html=1;align=center;verticalAlign=middle;resizable=0;points=[];autosize=1;" vertex="1" parent="1">
          <mxGeometry x="170" y="800" width="120" height="20" as="geometry"/>
        </mxCell>
        <mxCell id="r8pubFpYhxn6pMMQg7un-95" value="" style="edgeStyle=orthogonalEdgeStyle;rounded=0;orthogonalLoop=1;jettySize=auto;html=1;entryX=0.5;entryY=0;entryDx=0;entryDy=0;" edge="1" parent="1" source="r8pubFpYhxn6pMMQg7un-92" target="r8pubFpYhxn6pMMQg7un-93">
          <mxGeometry relative="1" as="geometry">
            <mxPoint x="258.125" y="1110" as="targetPoint"/>
          </mxGeometry>
        </mxCell>
        <mxCell id="r8pubFpYhxn6pMMQg7un-92" value="" style="rhombus;whiteSpace=wrap;html=1;" vertex="1" parent="1">
          <mxGeometry x="216.88" y="920" width="36.25" height="40" as="geometry"/>
        </mxCell>
        <mxCell id="r8pubFpYhxn6pMMQg7un-93" value="" style="ellipse;html=1;shape=endState;fillColor=#000000;strokeColor=#ff0000;" vertex="1" parent="1">
          <mxGeometry x="220" y="1020" width="30" height="30" as="geometry"/>
        </mxCell>
        <mxCell id="r8pubFpYhxn6pMMQg7un-96" value="Wystaw przedmiot na sprzedaż" style="text;html=1;align=center;verticalAlign=middle;resizable=0;points=[];autosize=1;" vertex="1" parent="1">
          <mxGeometry x="45" y="500" width="180" height="20" as="geometry"/>
        </mxCell>
        <mxCell id="r8pubFpYhxn6pMMQg7un-147" value="Sprzedający" style="shape=umlActor;verticalLabelPosition=bottom;labelBackgroundColor=#ffffff;verticalAlign=top;html=1;fillColor=#ffffff;" vertex="1" parent="1">
          <mxGeometry x="112.5" y="-350" width="30" height="60" as="geometry"/>
        </mxCell>
        <mxCell id="r8pubFpYhxn6pMMQg7un-148" value="" style="html=1;points=[];perimeter=orthogonalPerimeter;fillColor=#ffffff;" vertex="1" parent="1">
          <mxGeometry x="123" y="-260" width="10" height="360" as="geometry"/>
        </mxCell>
        <mxCell id="r8pubFpYhxn6pMMQg7un-149" value="System" style="html=1;" vertex="1" parent="1">
          <mxGeometry x="385" y="-330" width="90" height="50" as="geometry"/>
        </mxCell>
        <mxCell id="r8pubFpYhxn6pMMQg7un-150" value="SerwerPoczty" style="html=1;" vertex="1" parent="1">
          <mxGeometry x="717.5" y="-330" width="90" height="50" as="geometry"/>
        </mxCell>
        <mxCell id="r8pubFpYhxn6pMMQg7un-151" value="" style="endArrow=none;dashed=1;html=1;entryX=0.5;entryY=1;entryDx=0;entryDy=0;" edge="1" parent="1" target="r8pubFpYhxn6pMMQg7un-149">
          <mxGeometry width="50" height="50" relative="1" as="geometry">
            <mxPoint x="430" y="220" as="sourcePoint"/>
            <mxPoint x="315" y="-160" as="targetPoint"/>
          </mxGeometry>
        </mxCell>
        <mxCell id="r8pubFpYhxn6pMMQg7un-152" value="" style="endArrow=classic;html=1;" edge="1" parent="1">
          <mxGeometry width="50" height="50" relative="1" as="geometry">
            <mxPoint x="140" y="-220" as="sourcePoint"/>
            <mxPoint x="420" y="-220" as="targetPoint"/>
          </mxGeometry>
        </mxCell>
        <mxCell id="r8pubFpYhxn6pMMQg7un-153" value="1: rozpoczęcie procesu rejestracji konta" style="text;html=1;align=center;verticalAlign=middle;resizable=0;points=[];;autosize=1;" vertex="1" parent="1">
          <mxGeometry x="157.5" y="-240" width="230" height="20" as="geometry"/>
        </mxCell>
        <mxCell id="r8pubFpYhxn6pMMQg7un-154" value="" style="endArrow=classic;html=1;entryX=-0.009;entryY=0.96;entryDx=0;entryDy=0;entryPerimeter=0;" edge="1" parent="1" target="r8pubFpYhxn6pMMQg7un-155">
          <mxGeometry width="50" height="50" relative="1" as="geometry">
            <mxPoint x="420" y="-182" as="sourcePoint"/>
            <mxPoint x="90" y="90" as="targetPoint"/>
          </mxGeometry>
        </mxCell>
        <mxCell id="r8pubFpYhxn6pMMQg7un-155" value="1.1: wyswietlenie formularza danych użytkownika" style="text;html=1;align=center;verticalAlign=middle;resizable=0;points=[];;autosize=1;" vertex="1" parent="1">
          <mxGeometry x="142.5" y="-200" width="280" height="20" as="geometry"/>
        </mxCell>
        <mxCell id="r8pubFpYhxn6pMMQg7un-156" value="" style="endArrow=classic;html=1;" edge="1" parent="1">
          <mxGeometry width="50" height="50" relative="1" as="geometry">
            <mxPoint x="140" y="-140" as="sourcePoint"/>
            <mxPoint x="420" y="-140" as="targetPoint"/>
          </mxGeometry>
        </mxCell>
        <mxCell id="r8pubFpYhxn6pMMQg7un-157" value="2. wypełnienie pól formularza i potwierdzenie" style="text;html=1;align=center;verticalAlign=middle;resizable=0;points=[];;autosize=1;" vertex="1" parent="1">
          <mxGeometry x="157.5" y="-160" width="250" height="20" as="geometry"/>
        </mxCell>
        <mxCell id="r8pubFpYhxn6pMMQg7un-158" value="" style="endArrow=classic;html=1;" edge="1" parent="1">
          <mxGeometry width="50" height="50" relative="1" as="geometry">
            <mxPoint x="420" y="-40" as="sourcePoint"/>
            <mxPoint x="140" y="-40" as="targetPoint"/>
          </mxGeometry>
        </mxCell>
        <mxCell id="r8pubFpYhxn6pMMQg7un-159" value="2.1. wyświetla formularz danych użytkownika&amp;nbsp;&lt;br&gt;i prezentuje komunikat (lub idź do punkt 2.)" style="text;html=1;align=center;verticalAlign=middle;resizable=0;points=[];;autosize=1;" vertex="1" parent="1">
          <mxGeometry x="152.5" y="-70" width="260" height="30" as="geometry"/>
        </mxCell>
        <mxCell id="r8pubFpYhxn6pMMQg7un-160" value="[dane są niepoprawne]" style="text;html=1;align=center;verticalAlign=middle;resizable=0;points=[];;autosize=1;" vertex="1" parent="1">
          <mxGeometry x="135" y="-101" width="140" height="20" as="geometry"/>
        </mxCell>
        <mxCell id="r8pubFpYhxn6pMMQg7un-161" value="2.2: potwierdzenie przyjecia danych" style="text;html=1;align=center;verticalAlign=middle;resizable=0;points=[];;autosize=1;" vertex="1" parent="1">
          <mxGeometry x="177.5" y="30" width="210" height="20" as="geometry"/>
        </mxCell>
        <mxCell id="r8pubFpYhxn6pMMQg7un-162" value="" style="endArrow=classic;html=1;" edge="1" parent="1">
          <mxGeometry width="50" height="50" relative="1" as="geometry">
            <mxPoint x="420" y="50" as="sourcePoint"/>
            <mxPoint x="140" y="50" as="targetPoint"/>
          </mxGeometry>
        </mxCell>
        <mxCell id="r8pubFpYhxn6pMMQg7un-163" value="" style="html=1;points=[];perimeter=orthogonalPerimeter;fillColor=#ffffff;" vertex="1" parent="1">
          <mxGeometry x="425" y="-261" width="10" height="481" as="geometry"/>
        </mxCell>
        <mxCell id="r8pubFpYhxn6pMMQg7un-164" value="alt" style="shape=umlFrame;whiteSpace=wrap;html=1;fillColor=#ffffff;width=40;height=20;" vertex="1" parent="1">
          <mxGeometry x="80" y="-110" width="400" height="100" as="geometry"/>
        </mxCell>
        <mxCell id="r8pubFpYhxn6pMMQg7un-165" value="" style="endArrow=none;dashed=1;html=1;entryX=0.5;entryY=1;entryDx=0;entryDy=0;" edge="1" parent="1" source="r8pubFpYhxn6pMMQg7un-170" target="r8pubFpYhxn6pMMQg7un-150">
          <mxGeometry width="50" height="50" relative="1" as="geometry">
            <mxPoint x="763" y="120" as="sourcePoint"/>
            <mxPoint x="740" y="-170" as="targetPoint"/>
          </mxGeometry>
        </mxCell>
        <mxCell id="r8pubFpYhxn6pMMQg7un-166" value="" style="endArrow=classic;html=1;" edge="1" parent="1">
          <mxGeometry width="50" height="50" relative="1" as="geometry">
            <mxPoint x="438" y="40" as="sourcePoint"/>
            <mxPoint x="750" y="40" as="targetPoint"/>
          </mxGeometry>
        </mxCell>
        <mxCell id="r8pubFpYhxn6pMMQg7un-167" value="2.3: wyslanie emaila z kodem potwierdzajacym&lt;br&gt;założenie konta" style="text;html=1;align=center;verticalAlign=middle;resizable=0;points=[];;autosize=1;" vertex="1" parent="1">
          <mxGeometry x="460" y="10" width="270" height="30" as="geometry"/>
        </mxCell>
        <mxCell id="r8pubFpYhxn6pMMQg7un-168" value="" style="endArrow=classic;html=1;dashed=1;" edge="1" parent="1">
          <mxGeometry width="50" height="50" relative="1" as="geometry">
            <mxPoint x="750" y="86" as="sourcePoint"/>
            <mxPoint x="439" y="86" as="targetPoint"/>
          </mxGeometry>
        </mxCell>
        <mxCell id="r8pubFpYhxn6pMMQg7un-169" value="2.3.2: potwierdzenie" style="text;html=1;align=center;verticalAlign=middle;resizable=0;points=[];;autosize=1;" vertex="1" parent="1">
          <mxGeometry x="510" y="60" width="120" height="20" as="geometry"/>
        </mxCell>
        <mxCell id="r8pubFpYhxn6pMMQg7un-170" value="" style="html=1;points=[];perimeter=orthogonalPerimeter;fillColor=#ffffff;" vertex="1" parent="1">
          <mxGeometry x="758" y="-90" width="10" height="200" as="geometry"/>
        </mxCell>
        <mxCell id="r8pubFpYhxn6pMMQg7un-171" value="" style="endArrow=none;dashed=1;html=1;entryX=0.5;entryY=1;entryDx=0;entryDy=0;" edge="1" parent="1" target="r8pubFpYhxn6pMMQg7un-170">
          <mxGeometry width="50" height="50" relative="1" as="geometry">
            <mxPoint x="763" y="120" as="sourcePoint"/>
            <mxPoint x="762.5" y="-280" as="targetPoint"/>
          </mxGeometry>
        </mxCell>
        <mxCell id="r8pubFpYhxn6pMMQg7un-172" value="" style="endArrow=classic;html=1;exitX=1.08;exitY=0.734;exitDx=0;exitDy=0;exitPerimeter=0;" edge="1" parent="1" source="r8pubFpYhxn6pMMQg7un-170">
          <mxGeometry width="50" height="50" relative="1" as="geometry">
            <mxPoint x="805" y="55" as="sourcePoint"/>
            <mxPoint x="769" y="80" as="targetPoint"/>
            <Array as="points">
              <mxPoint x="830" y="57"/>
              <mxPoint x="830" y="80"/>
            </Array>
          </mxGeometry>
        </mxCell>
        <mxCell id="r8pubFpYhxn6pMMQg7un-173" value="2.3.1: wysłanie emaila" style="text;html=1;align=center;verticalAlign=middle;resizable=0;points=[];;autosize=1;" vertex="1" parent="1">
          <mxGeometry x="780" y="30" width="130" height="20" as="geometry"/>
        </mxCell>
        <mxCell id="r8pubFpYhxn6pMMQg7un-176" value="" style="endArrow=classic;html=1;entryX=1.58;entryY=0.95;entryDx=0;entryDy=0;entryPerimeter=0;" edge="1" parent="1" target="r8pubFpYhxn6pMMQg7un-163">
          <mxGeometry width="50" height="50" relative="1" as="geometry">
            <mxPoint x="440" y="150" as="sourcePoint"/>
            <mxPoint x="610" y="150" as="targetPoint"/>
            <Array as="points">
              <mxPoint x="500" y="150"/>
              <mxPoint x="500" y="196"/>
            </Array>
          </mxGeometry>
        </mxCell>
        <mxCell id="r8pubFpYhxn6pMMQg7un-177" value="2.3.3 Utwórz konto użytkownika" style="text;html=1;align=center;verticalAlign=middle;resizable=0;points=[];;autosize=1;" vertex="1" parent="1">
          <mxGeometry x="445" y="130" width="180" height="20" as="geometry"/>
        </mxCell>
        <mxCell id="r8pubFpYhxn6pMMQg7un-178" value="alt" style="shape=umlFrame;whiteSpace=wrap;html=1;fillColor=#ffffff;width=40;height=20;" vertex="1" parent="1">
          <mxGeometry x="315.01" y="100" width="330" height="110" as="geometry"/>
        </mxCell>
        <mxCell id="r8pubFpYhxn6pMMQg7un-179" value="[dane są poprawne]" style="text;html=1;align=center;verticalAlign=middle;resizable=0;points=[];;autosize=1;" vertex="1" parent="1">
          <mxGeometry x="435" y="100" width="120" height="20" as="geometry"/>
        </mxCell>
        <mxCell id="r8pubFpYhxn6pMMQg7un-189" value="" style="edgeStyle=orthogonalEdgeStyle;rounded=0;orthogonalLoop=1;jettySize=auto;html=1;entryX=0.5;entryY=0;entryDx=0;entryDy=0;" edge="1" parent="1" source="r8pubFpYhxn6pMMQg7un-183" target="r8pubFpYhxn6pMMQg7un-24">
          <mxGeometry relative="1" as="geometry">
            <mxPoint x="460" y="305" as="targetPoint"/>
          </mxGeometry>
        </mxCell>
        <mxCell id="r8pubFpYhxn6pMMQg7un-183" value="sd Rejestracja użytkownika" style="shape=umlFrame;whiteSpace=wrap;html=1;width=180;height=20;" vertex="1" parent="1">
          <mxGeometry x="15" y="-385" width="890" height="610" as="geometry"/>
        </mxCell>
      </root>
    </mxGraphModel>
  </diagram>
</mxfile>
